<svg xmlns="http://www.w3.org/2000/svg" viewBox="0 0 200 64" fill="none" aria-label="Girl Scouts" role="img">
  <!-- Trefoil mark -->
  <g fill="#00b451">
    <path d="M168 6c-6 0-11 5-11 11 0 5 3 9 8 11-3 1-5 4-5 8 0 5 4 8 8 8s8-3 8-8c0-4-2-7-5-8 5-2 8-6 8-11 0-6-5-11-11-11Z"/>
    <path d="M156 22c-5-2-11 0-14 5-2 4-1 9 2 12-3 0-7 2-9 6-2 4 0 9 4 11 4 2 9 0 11-4 2-3 2-6 0-9 5 1 10-1 12-5 3-5 1-11-4-14a10 10 0 0 0-2-2Z"/>
    <path d="M180 22c-1 1-2 1-2 2-5 3-7 9-4 14 2 4 7 6 12 5-2 3-2 6 0 9 2 4 7 6 11 4 4-2 6-7 4-11-2-4-6-6-9-6 3-3 4-8 2-12-3-5-9-7-14-5Z"/>
  </g>
  <!-- Wordmark -->
  <text x="0" y="40" font-family="'Girl Scout', Georgia, serif" font-size="30" font-weight="700" fill="currentColor">girl scouts</text>
</svg>
