<svg xmlns="http://www.w3.org/2000/svg" viewBox="0 0 24 24" fill="currentColor" aria-hidden="true"><path d="M.06 24l1.69-6.16a11.86 11.86 0 0 1-1.59-5.95C.16 5.34 5.5 0 12.06 0a11.82 11.82 0 0 1 8.41 3.49 11.82 11.82 0 0 1 3.48 8.41c0 6.56-5.34 11.9-11.9 11.9a11.9 11.9 0 0 1-5.69-1.45L.06 24ZM6.6 20.2l.36.22c1.5.89 3.21 1.36 4.96 1.36 5.45 0 9.89-4.43 9.89-9.88 0-2.64-1.03-5.12-2.9-6.99a9.82 9.82 0 0 0-6.98-2.9c-5.46 0-9.9 4.43-9.9 9.88 0 1.87.53 3.69 1.52 5.26l.24.38-1 3.65 3.81-1Zm11.85-5.42c-.07-.12-.27-.2-.56-.34-.3-.15-1.76-.87-2.03-.97-.27-.1-.47-.15-.67.15-.2.3-.77.96-.94 1.16-.17.2-.35.22-.64.07-.3-.15-1.25-.46-2.39-1.47a8.96 8.96 0 0 1-1.65-2.06c-.17-.3-.02-.46.13-.6.13-.14.3-.35.45-.52.15-.18.2-.3.3-.5.1-.2.05-.38-.03-.53-.07-.15-.67-1.62-.92-2.22-.24-.58-.49-.5-.67-.51l-.57-.01c-.2 0-.52.07-.8.37-.27.3-1.04 1.02-1.04 2.49 0 1.47 1.07 2.89 1.22 3.09.15.2 2.1 3.21 5.1 4.5.71.31 1.27.49 1.7.63.71.23 1.36.2 1.88.12.57-.09 1.76-.72 2-1.41.25-.69.25-1.28.18-1.41Z"/></svg>
